<?xml version="1.0" encoding="utf-8"?>
<svg version="1.1" id="Слой_1" xmlns="http://www.w3.org/2000/svg" xmlns:xlink="http://www.w3.org/1999/xlink" x="0px" y="0px"
	 viewBox="0 0 512 512" style="enable-background:new 0 0 512 512;" xml:space="preserve">
<style type="text/css">
	.st0{fill:#FFFFFF;}
</style>
<g>
	<path class="st0" d="M64.3,202.7c7.3,0,14.1-0.1,21,0.1c0.7,0,1.6,1.2,1.9,2c4.9,15.8,9.7,31.6,14.6,47.5c2.3,7.5,4.6,15,7.1,23.1
		c0.7-2.5,1.3-4.3,1.7-6.1c5.3-21.2,10.7-42.3,16-63.5c0.6-2.2,1.4-3.2,3.8-3.1c6.3,0.2,12.7,0.2,19,0c2.2-0.1,3,0.7,3.6,2.7
		c6.3,21.6,12.7,43.3,19,64.9c0.5,1.7,1.1,3.3,2.2,5c0.7-2.3,1.3-4.7,2-7c6-21,11.9-42,17.8-63c0.6-2,1.4-2.6,3.4-2.6
		c6.1,0.1,12.1,0,18.6,0c-0.4,1.4-0.7,2.5-1,3.7c-9.1,29.7-18.1,59.5-27.2,89.2c-1.7,5.5-2.9,6.4-8.7,6.4c-4.3,0-8.6,0-13,0
		c-4.4,0-5.8-1-7-5.2c-6-21.1-11.9-42.2-17.8-63.3c-0.3-1-0.6-2-1.4-3c-1,3.7-2,7.3-2.9,11c-4.5,18.2-9,36.4-13.6,54.6
		c-1.2,4.7-2.9,5.9-7.7,5.9c-4.5,0-9,0-13.5,0c-4.7,0-6.1-1-7.6-5.7c-3.8-11.4-7.5-22.9-11.3-34.4c-6.1-18.7-12.2-37.3-18.3-56
		C64.9,205,64.7,204.1,64.3,202.7z"/>
	<path class="st0" d="M360.6,303c-1.3,0.1-2.1,0.1-3,0.1c-19.3,0-38.6,0-57.9,0.1c-1.9,0-3-0.6-3.9-2.3c-10.2-19-20.5-38-30.8-57
		c-0.2-0.4-0.5-0.7-0.9-1.4c-8.3,13.8-16.5,27.3-25,41.3c1.4,0.1,2.3,0.1,3.2,0.1c7.2,0,14.5,0.1,21.7,0c1.7,0,2.7,0.4,3.6,2
		c2.8,5.3,5.8,10.4,8.9,15.9c-22.3,0-44.2,0-66.5,0c18-31.5,35.8-62.8,54-94.6c0.7,1.2,1.2,2,1.7,2.8c13.7,23.4,27.3,46.7,40.9,70.1
		c1.5,2.6,3.1,3.5,6,3.4c5.7-0.3,11.4-0.1,17.6-0.1c-0.5-1.1-0.9-1.8-1.3-2.6c-17.5-31.5-35-63-52.5-94.5c-1.2-2.2-1.3-3.8,0.3-5.9
		c2.9-3.8,5.5-7.8,8.6-12.2C310.4,213.3,335.4,258,360.6,303z"/>
	<path class="st0" d="M428,261.5c-7.9,0-15.5,0-23.1,0c-3.6,0-4.6-0.9-4.6-4.5c0-4.5,0-9,0-13.6c16.5,0,32.6,0,49.1,0
		c0,0.9,0.1,1.8,0.1,2.8c0,17.1,0,34.2,0,51.3c0,3.9-0.6,4.5-4.4,4.5c-13.8,0-27.7,0.1-41.5-0.2c-5-0.1-10-0.8-14.9-2
		c-11.7-2.8-20-10-24.3-21.2c-6.5-16.9-6.8-34.1-0.2-51.1c5-12.9,15-20.1,28.3-22.9c4.3-0.9,8.7-1.6,13.1-1.7
		c13.3-0.2,26.6,0,39.9,0.1c3.9,0,4,0.4,4,4.2c0,3,0,6,0,9c-0.1,4.1-1.4,5.3-5.5,5.2c-11.5-0.2-23.1-0.4-34.6-0.4
		c-3.1,0-6.2,0.5-9.2,1.1c-8.5,1.7-13.9,7-15.9,15.4c-2.3,9.6-2.4,19.3-0.4,28.9c2,9.9,8,15.5,18.1,16.4c7.4,0.7,15,0.5,22.4,0.6
		c2.1,0,3.4-1.3,3.5-3.3C428.1,274,428,267.9,428,261.5z"/>
	<path class="st0" d="M288.2,343.5c-2.6,0-4.7,0.1-6.7-0.1c-0.7-0.1-1.5-1-1.8-1.8c-1.8-4.7-1.7-4.7-6.8-4.7c-1.1,0-2.3,0-3.8,0
		c0.7-2,0.8-4.2,2-5.3c1-1,3.2-0.7,5.1-1c-1-3.4-2-6.7-3.2-10.7c-2,6.6-3.7,12.4-5.5,18.3c-1.6,5.3-1.6,5.4-7.1,5.2
		c-0.4,0-0.9-0.1-1.8-0.1c0.4-1.8,0.7-3.5,1.3-5.1c2.7-8.2,5.6-16.3,8.3-24.5c0.6-1.7,1.4-2.3,3.2-2.2c5.7,0.1,5.7,0,7.6,5.4
		c2.8,7.8,5.5,15.6,8.3,23.4C287.5,341.1,287.8,342,288.2,343.5z"/>
	<path class="st0" d="M184.8,336.9c1.1-5.6,1.1-5.6,6.9-6.2c-1-3.4-2-6.8-3.3-10.9c-2.1,7.1-4.2,13.4-5.8,19.8
		c-0.8,2.9-1.9,4.5-5.1,3.9c-1-0.2-2.1,0-3.5,0c0.7-2.5,1.2-4.7,1.9-6.8c2.6-7.7,5.2-15.3,7.8-23c0.5-1.6,1.2-2.2,3-2.2
		c6,0,6-0.1,7.9,5.6c2.8,7.9,5.6,15.8,8.3,23.7c0.3,0.8,0.5,1.6,0.9,2.8c-2.4,0-4.5,0.1-6.6-0.1c-0.7-0.1-1.5-0.8-1.8-1.4
		c-0.7-1.6-1.2-3.3-1.8-5.1C190.6,336.9,187.8,336.9,184.8,336.9z"/>
	<path class="st0" d="M122,343.5c0-1.3-0.2-2.6,0.1-3.8c0.2-0.8,0.9-1.9,1.6-2.1c1.8-0.6,2.9-1.5,3-3.5c0.1-2.2-1.5-2.5-3.1-3
		c-2.3-0.6-4.6-1.1-6.9-1.7c-5.8-1.6-8.5-5.3-7.6-10.3c0.9-4.8,5.5-8,11.3-7.5c0,1.7,0,3.4,0,5.3c-0.7,0.2-1.7,0.3-2.2,0.8
		c-0.8,0.8-1.8,1.8-1.9,2.8c0,0.7,1.1,1.9,2,2.2c2.4,0.8,4.9,1.3,7.4,2c6.3,1.8,9,5.6,8,11.1C133,340.7,128.2,343.9,122,343.5z"/>
	<path class="st0" d="M385.3,328c0.9,2.8,1.6,5.2,2.3,7.6c0.7,2.4,1.2,4.9,1.9,7.8c-2.2,0-4.3,0.1-6.4-0.1c-0.6-0.1-1.4-1-1.6-1.7
		c-0.6-1.9-1-3.9-1.3-5.9c-0.3-2.6-1.5-3.8-4.1-3.7c-1.3,0-2.6-0.2-4.1-0.3c0-1.9,0-3.7,0-6c1.6,0,3.2,0.1,4.7,0
		c3.1-0.2,4.6-1.6,4.8-3.9c0.2-2.5-0.9-3.9-3.4-4.1c-2-0.2-4-0.2-6.1-0.3c0-2,0-3.8,0-5.8c2.5,0,4.9-0.1,7.2,0
		c4,0.3,7.6,1.6,8.9,5.8C389.4,321.6,388.7,325.5,385.3,328z"/>
	<path class="st0" d="M232.1,343.4c-1.6,0-2.5,0-3.4,0c-5.2,0-5.3,0-6.2-5.1c-0.9-5.1-0.7-7.1-7.5-6.5c-0.3,0-0.7-0.1-1.1-0.2
		c0-1.9,0-3.7,0-6c1.7,0,3.4,0.1,5,0c3-0.2,4.4-1.7,4.4-4.3c0-2.4-1.4-3.7-4.4-3.9c-1.6-0.1-3.3,0-5.2,0c0-1.3,0-2.2,0-3.1
		c0-0.9,0.1-1.7,0.2-3c3.1,0.2,6.1,0.1,9,0.5c3.5,0.5,6.2,2.3,7.1,5.8c1,3.8,0.6,7.4-2.6,10.1c-0.3,0.2-0.5,0.5-0.7,0.7
		C230.7,332.6,228.9,338.6,232.1,343.4z"/>
	<path class="st0" d="M407.6,311.6c8.6,0,14.6,7.2,14.3,16.8c-0.3,8.6-6.8,15.5-14.3,14.9c0-1.8,0-3.6,0-5.5c6-3.2,7.8-6.6,6.8-13
		c-0.5-2.7-1.5-5.4-4.1-6.4c-2.8-1-2.9-2.8-2.7-5.1C407.5,312.9,407.6,312.3,407.6,311.6z"/>
	<path class="st0" d="M406,311.5c0,1.6,0.2,3-0.1,4.3c-0.1,0.8-0.7,1.7-1.4,2c-4.1,1.9-5.5,5.3-5.4,9.5c0,4.2,1.2,7.8,5.4,9.8
		c0.7,0.3,1.3,1.3,1.4,2.1c0.2,1.4,0.1,2.8,0.1,4.1c-6.9,0.7-13.6-6-14.2-14.2C391,319.6,396.9,312,406,311.5z"/>
	<path class="st0" d="M345,343.5c-8.7-0.5-14.3-7.2-14.1-16.3c0.2-9,6.1-15.6,14.2-15.6c0,1.6,0.1,3.1-0.1,4.7
		c-0.1,0.5-0.6,1.3-1.1,1.5c-4.5,1.9-5.7,5.7-5.7,10.1c0,4.6,1.8,8.3,6.7,9.7C345,339.5,345,341.4,345,343.5z"/>
	<path class="st0" d="M440.6,311.6c2.6,0,4.8,0,7.4,0c0,3.7,0,7.3,0,10.9c0,4,0.2,8.1-0.3,12.1c-0.7,5.8-4.8,9.1-10.9,8.8
		c0-2,0-4,0-5.9c0-0.4,0.5-1,0.9-1.1c2.3-0.9,2.8-2.8,2.8-4.9c0-5.6,0.1-11.3,0.1-16.9C440.6,313.7,440.6,312.7,440.6,311.6z"/>
	<path class="st0" d="M431.4,311.7c0,3.2,0,6.3,0,9.4c0,3.4,0,6.9,0,10.3c0,2.2,0.5,4.2,3.1,5c0.4,0.1,0.9,0.9,0.9,1.3
		c0.1,1.8,0,3.7,0,5.5c-3.9,0.8-8-1.1-9.8-4.6c-0.8-1.5-1.5-3.3-1.5-5c-0.2-7.2-0.1-14.4-0.1-21.9
		C426.5,311.7,428.8,311.7,431.4,311.7z"/>
	<path class="st0" d="M89.8,311.7c0,10.5,0,20.9,0,31.4c-2.3,0-4.5,0-7,0c0-10.4,0-20.8,0-31.4C85,311.7,87.3,311.7,89.8,311.7z"/>
	<path class="st0" d="M370.2,343.3c-2.3,0-4.5,0-6.9,0c0-10.6,0-21,0-31.6c2.3,0,4.5,0,6.9,0C370.2,322.1,370.2,332.6,370.2,343.3z"
		/>
	<path class="st0" d="M241.2,311.7c0,10.6,0,21,0,31.5c-2.4,0-4.6,0-7,0c0-10.5,0-20.9,0-31.5C236.5,311.7,238.7,311.7,241.2,311.7z
		"/>
	<path class="st0" d="M450.4,311.6c2.5,0,4.7,0,7.1,0c0,10.5,0,20.9,0,31.6c-2.3,0-4.6,0-7.1,0C450.4,332.7,450.4,322.3,450.4,311.6
		z"/>
	<path class="st0" d="M459.1,332.5c0-2.2,0-4.1,0-6.1c3.4-0.7,8.7,1.3,8.7-4.6c0-6-5.3-3.9-8.7-4.7c0-1.8,0-3.5,0-5.5
		c5-0.3,10.1-1,14,3.2c2.7,2.9,3.1,8.7,1,12.5C470.7,333.4,464.9,332.6,459.1,332.5z"/>
	<path class="st0" d="M315.3,343.1c-5.6,1.3-6.6,0.9-9.2-3.6c-5-8.5-10-17-15-25.5c-0.4-0.7-0.7-1.4-1.4-2.5c2.3,0,4.3-0.1,6.2,0
		c0.5,0,1.1,0.5,1.4,1C303.4,322.7,309.3,332.9,315.3,343.1z"/>
	<path class="st0" d="M64.6,343.7c-0.7-0.7-1.7-1.3-2.1-2.2c-1.3-3.2-2.4-6.5-3.9-10.6c-1.4,4-2.7,7.3-3.7,10.7
		c-0.6,1.8-1.5,2.2-3.2,1.5c-0.7-7.2-0.3-14.2,3-20.7c0.3-0.7,1.3-1.2,2.1-1.4c1.1-0.2,2.3-0.3,3.4,0c0.9,0.3,2,0.9,2.4,1.7
		c3.5,6.4,3.1,13.3,2.8,20.3C65.1,343.3,64.9,343.5,64.6,343.7z"/>
	<path class="st0" d="M205.3,311.6c2.4,0,4.5,0,6.8,0c0,10.5,0,21,0,31.6c-2.2,0-4.4,0-6.8,0C205.3,332.7,205.3,322.3,205.3,311.6z"
		/>
	<path class="st0" d="M81.2,311.5c-1.9,5.4-3.7,10.4-5.5,15.4c-1.7,4.8-3.6,9.6-5.2,14.4c-0.6,1.7-1.4,2.5-4,1.5
		c0.5-4.6,0.5-9.5,1.5-14.2c1.1-4.9,3.4-9.6,5-14.4c0.7-2.1,1.6-3.1,3.9-2.7C78.1,311.6,79.5,311.5,81.2,311.5z"/>
	<path class="st0" d="M49.7,343.7c-0.7-0.5-1.9-0.9-2.1-1.6c-3.7-9.9-7.3-19.8-10.9-29.7c-0.1-0.1,0-0.3,0.1-0.9
		c1.8,0,3.7-0.1,5.6,0.1c0.6,0.1,1.4,0.9,1.7,1.5c2,5.3,4.3,10.5,5.6,15.9c1,4.5,0.7,9.4,0.9,14.1C50.2,343.3,49.9,343.5,49.7,343.7
		z"/>
	<path class="st0" d="M144.6,343.3c0-8.2,0-16.1,0-24.2c2.3,0,4.6,0,7,0c0,8,0,16,0,24.2C149.2,343.3,147,343.3,144.6,343.3z"/>
	<path class="st0" d="M296.7,343.3c-2.3,0-4.6,0-6.9,0c0-9.5,0-18.9,0-28.2C297.7,323,297.8,332.9,296.7,343.3z"/>
	<path class="st0" d="M346.7,343.3c0-1.5-0.2-3,0.1-4.4c0.1-0.7,0.9-1.3,1.5-1.8c1.3-0.9,2.7-1.8,4-2.6c-0.1-0.2-0.2-0.5-0.3-0.7
		c-1.6-0.1-3.2-0.2-5.1-0.3c0-1.8,0-3.6,0-5.5c4.6,0,9.2,0,13.8,0C361.4,336.4,354.8,343.7,346.7,343.3z"/>
	<path class="st0" d="M315.3,339.7c-8.4-7.7-7.2-17.8-6.7-28c2.1,0,4.3,0,6.7,0C315.3,321.1,315.3,330.5,315.3,339.7z"/>
	<path class="st0" d="M159.8,311.6c0,2,0,3.8,0,5.8c-8,0-15.8,0-23.9,0c0-2,0-3.8,0-5.8C143.9,311.6,151.7,311.6,159.8,311.6z"/>
	<path class="st0" d="M108.1,333.1c1.3-0.1,2.4-0.2,3.6-0.4c1.8-0.3,3.4-0.3,4,2.1c0.2,0.7,1,1.4,1.7,1.9c3.5,2.2,3.5,2.1,3,6.6
		C114.2,344.6,108.7,340.2,108.1,333.1z"/>
	<path class="st0" d="M359.8,321c-2,0.9-3.9,1.8-6,2.7c-1.6-3.1-3.4-5.9-7.1-6.3c0-2,0-3.8,0-5.6C352.1,311,357.4,314.7,359.8,321z"
		/>
	<path class="st0" d="M106.2,343.3c-4.9,0-9.7,0-14.7,0c0-1.9,0-3.7,0-5.6c4.9,0,9.7,0,14.7,0C106.2,339.5,106.2,341.3,106.2,343.3z"
		/>
	<path class="st0" d="M91.5,317.3c0-2.1,0-3.8,0-5.7c4.8,0,9.5,0,14.4,0c0,1.9,0,3.7,0,5.7C101.1,317.3,96.4,317.3,91.5,317.3z"/>
	<path class="st0" d="M242.9,343.3c0-1.9,0-3.6,0-5.6c4.7,0,9.4,0,14.2,0c0,1.8,0,3.6,0,5.6C252.4,343.3,247.7,343.3,242.9,343.3z"
		/>
	<path class="st0" d="M104.6,329.5c-4.4,0-8.7,0-13.4,0c0-1.5-0.1-3,0.1-4.4c0.1-0.5,1-1.2,1.5-1.2c3.9-0.1,7.7-0.1,11.8-0.1
		C104.6,325.7,104.6,327.5,104.6,329.5z"/>
	<path class="st0" d="M133.1,321.6c-1.9,0-4.1,0.6-5.8-0.2c-1.7-0.7-3.2-2.5-4.2-4.1c-0.9-1.5-1-3.5-1.5-5.3
		C129.3,310.8,134.1,316.6,133.1,321.6z"/>
</g>
</svg>
